<svg width="223" height="294" viewBox="0 0 223 294" fill="none" xmlns="http://www.w3.org/2000/svg">
<circle cx="111.5" cy="143.5" r="111.5" fill="#4C6680"/>
<path d="M78.432 132.656C75.456 142.16 72 150.368 68.064 157.28C64.128 164.192 60.048 169.472 55.824 173.12C51.6 176.768 47.568 178.592 43.728 178.592C34.896 178.592 30.48 169.52 30.48 151.376C30.48 140.24 31.824 129.2 34.512 118.256C37.2 107.216 40.176 97.76 43.44 89.888C44.4 87.392 45.648 85.424 47.184 83.984C48.72 82.448 50.88 81.68 53.664 81.68C56.256 81.68 58.32 82.352 59.856 83.696C61.392 84.944 62.16 86.864 62.16 89.456L62.016 91.184C62.016 91.376 61.44 92.96 60.288 95.936C57.408 103.712 54.816 111.152 52.512 118.256C50.304 125.36 48.912 132.128 48.336 138.56C48.048 141.824 47.904 145.04 47.904 148.208C47.904 151.376 48.24 153.968 48.912 155.984C49.584 157.904 50.544 158.864 51.792 158.864C54.576 158.864 57.936 154.88 61.872 146.912C65.904 138.848 69.744 129.248 73.392 118.112C77.04 106.88 79.728 97.04 81.456 88.592C81.84 86.768 82.944 85.232 84.768 83.984C86.592 82.736 88.176 82.112 89.52 82.112C91.92 82.112 93.648 82.736 94.704 83.984C95.856 85.136 96.432 86.96 96.432 89.456L96.288 91.472C96.288 91.856 96.192 92.384 96 93.056C95.808 93.728 95.616 94.592 95.424 95.648C90.816 117.536 88.032 133.856 87.072 144.608C86.976 145.376 86.928 146.528 86.928 148.064C86.928 151.328 87.36 153.968 88.224 155.984C89.184 157.904 90.384 158.864 91.824 158.864C96.528 158.864 101.28 151.568 106.08 136.976C110.88 122.288 115.152 106.016 118.896 88.16C119.28 86.432 120.096 85.184 121.344 84.416C122.688 83.552 124.272 83.12 126.096 83.12C128.4 83.12 130.752 83.6 133.152 84.56C135.552 85.52 136.752 86.576 136.752 87.728L134.448 97.808C130.896 113.552 127.296 126.992 123.648 138.128C120.096 149.264 115.392 158.816 109.536 166.784C103.776 174.656 96.768 178.592 88.512 178.592C80.448 178.592 76.416 171.2 76.416 156.416C76.416 149.6 77.28 141.68 79.008 132.656H78.432Z" fill="#E5E5E5"/>
<path d="M180.656 197.288C182.48 198.632 183.68 199.976 184.256 201.32C184.832 202.568 185.12 204.056 185.12 205.784C185.12 208.472 183.2 210.728 179.36 212.552C172.16 213.512 162.08 214.424 149.12 215.288C136.16 216.248 126.896 216.776 121.328 216.872C117.872 215.048 116.144 212.744 116.144 209.96C116.144 208.808 116.72 207.512 117.872 206.072L147.968 168.92L175.616 134.792C155.072 135.368 142.448 137.192 137.744 140.264C136.4 139.208 135.296 137.72 134.432 135.8C133.664 133.784 133.28 131.96 133.28 130.328C133.28 127.64 135.104 125.432 138.752 123.704C145.952 122.744 156.032 121.832 168.992 120.968C181.952 120.008 191.216 119.48 196.784 119.384C200.24 121.208 201.968 123.512 201.968 126.296C201.968 127.448 201.392 128.744 200.24 130.184L143.216 200.744C160.112 199.688 172.592 198.536 180.656 197.288Z" fill="#E5E5E5"/>
</svg>
